<svg width="52" height="52" viewBox="0 0 52 52" fill="none" xmlns="http://www.w3.org/2000/svg">
<path d="M32.4999 47.6666V38.9999C32.8013 36.2857 32.0231 33.5619 30.3332 31.4166C36.8332 31.4166 43.3332 27.0833 43.3332 19.4999C43.5065 16.7916 42.7482 14.1266 41.1665 11.9166C41.7732 9.42492 41.7732 6.82492 41.1665 4.33325C41.1665 4.33325 38.9999 4.33325 34.6665 7.58325C28.9465 6.49992 23.0532 6.49992 17.3332 7.58325C12.9999 4.33325 10.8332 4.33325 10.8332 4.33325C10.1832 6.82492 10.1832 9.42492 10.8332 11.9166C9.2556 14.1177 8.4899 16.7976 8.66654 19.4999C8.66654 27.0833 15.1665 31.4166 21.6665 31.4166C20.8215 32.4782 20.1932 33.6916 19.8249 34.9916C19.4565 36.2916 19.3482 37.6566 19.4999 38.9999V47.6666" stroke="#F9F9F9" stroke-width="3" stroke-linecap="round" stroke-linejoin="round"/>
<path d="M19.5002 39.0001C9.7285 43.3334 8.66683 34.6667 4.3335 34.6667" stroke="#F9F9F9" stroke-width="3" stroke-linecap="round" stroke-linejoin="round"/>
</svg>
