<svg width="52" height="52" viewBox="0 0 52 52" fill="none" xmlns="http://www.w3.org/2000/svg">
<path d="M36.8335 4.33325H15.1668C9.18374 4.33325 4.3335 9.1835 4.3335 15.1666V36.8332C4.3335 42.8163 9.18374 47.6666 15.1668 47.6666H36.8335C42.8166 47.6666 47.6668 42.8163 47.6668 36.8332V15.1666C47.6668 9.1835 42.8166 4.33325 36.8335 4.33325Z" stroke="#F9F9F9" stroke-width="3" stroke-linecap="round" stroke-linejoin="round"/>
<path d="M34.6668 24.6349C34.9342 26.4381 34.6262 28.2797 33.7867 29.8978C32.9471 31.5158 31.6187 32.828 29.9904 33.6475C28.3621 34.4671 26.5168 34.7524 24.717 34.4628C22.9173 34.1732 21.2547 33.3234 19.9657 32.0344C18.6767 30.7454 17.8269 29.0828 17.5373 27.283C17.2477 25.4833 17.533 23.638 18.3526 22.0097C19.1721 20.3814 20.4842 19.053 22.1023 18.2134C23.7204 17.3739 25.562 17.0659 27.3652 17.3333C29.2045 17.606 30.9074 18.4631 32.2222 19.7779C33.537 21.0927 34.3941 22.7956 34.6668 24.6349Z" stroke="#F9F9F9" stroke-width="3" stroke-linecap="round" stroke-linejoin="round"/>
<path d="M37.9165 14.0833H37.9382" stroke="#F9F9F9" stroke-width="3" stroke-linecap="round" stroke-linejoin="round"/>
</svg>
